<?xml version="1.0" standalone="no"?>
<!DOCTYPE svg PUBLIC "-//W3C//DTD SVG 20010904//EN"
 "http://www.w3.org/TR/2001/REC-SVG-20010904/DTD/svg10.dtd">
<svg version="1.0" xmlns="http://www.w3.org/2000/svg"
 width="1042.000000pt" height="1042.000000pt" viewBox="0 0 1042.000000 1042.000000"
 preserveAspectRatio="xMidYMid meet">

<g transform="translate(0.000000,1042.000000) scale(0.100000,-0.100000)"
fill="#000000" stroke="none">
<path d="M6520 9349 c-172 -14 -356 -67 -533 -154 -226 -112 -417 -284 -610
-552 -30 -42 -63 -102 -133 -236 -38 -75 -50 -91 -82 -104 -39 -16 -145 -13
-180 6 -58 31 -385 103 -682 150 -30 5 -152 15 -271 21 -217 13 -497 4 -684
-21 -211 -28 -485 -94 -685 -164 -272 -95 -592 -260 -796 -410 -23 -16 -55
-39 -70 -50 -225 -160 -492 -425 -687 -683 -131 -172 -222 -318 -321 -513
-128 -250 -193 -429 -260 -709 -57 -242 -71 -368 -71 -680 0 -389 21 -521 177
-1125 29 -112 53 -164 84 -175 17 -7 66 -6 144 2 138 13 263 3 463 -38 221
-45 398 -117 575 -236 176 -117 308 -248 435 -428 110 -158 220 -432 327 -815
23 -82 53 -186 66 -230 14 -44 30 -114 36 -155 15 -97 8 -108 -123 -196 -132
-88 -149 -109 -149 -183 0 -69 22 -103 77 -122 52 -17 194 -4 295 27 158 50
263 66 378 60 58 -3 146 -14 195 -25 190 -43 560 -91 690 -91 47 0 115 33 144
72 42 53 37 152 -12 221 -52 75 -210 138 -445 176 -68 12 -127 23 -132 26 -4
2 -75 9 -158 14 -252 16 -252 16 -346 356 -20 72 -41 148 -48 170 -6 22 -12
47 -14 55 -1 8 -12 53 -24 100 -33 124 -32 210 3 283 20 39 42 66 68 84 l39
26 334 2 c224 1 339 -2 348 -9 19 -14 38 -50 38 -71 0 -37 85 -176 351 -572
38 -57 69 -105 69 -107 0 -2 55 -88 123 -190 67 -102 151 -231 187 -287 78
-122 134 -176 193 -183 23 -3 159 -10 302 -16 143 -6 323 -15 400 -20 308 -20
423 -23 477 -10 72 18 114 47 139 97 17 36 19 47 9 85 -24 92 -96 164 -194
194 -78 24 -363 62 -546 74 -371 23 -377 26 -525 253 -38 59 -121 185 -183
279 -286 434 -302 463 -302 528 0 63 3 64 285 155 371 120 641 247 945 443
131 84 293 204 340 252 3 3 45 41 94 85 257 230 480 520 662 860 137 255 246
605 289 920 2 17 8 55 14 85 6 30 20 167 31 305 11 137 25 277 31 310 37 200
180 370 401 478 132 64 171 71 398 70 199 -1 208 -2 393 -52 248 -67 619 -263
917 -484 161 -120 281 -223 497 -429 107 -103 128 -118 157 -118 37 0 51 12
61 50 13 54 -182 374 -345 565 -179 209 -430 455 -610 596 -30 24 -57 46 -60
49 -19 21 -392 286 -475 337 -232 143 -230 140 -258 268 -118 521 -404 943
-827 1217 -242 156 -597 257 -840 237z m680 -1031 c207 -99 240 -372 64 -527
-62 -54 -130 -74 -237 -69 -128 5 -215 61 -273 176 -71 139 -10 324 134 408
62 37 93 43 182 40 56 -2 89 -9 130 -28z"/>
</g>
</svg>
